<svg xmlns="http://www.w3.org/2000/svg" id="Layer_1" x="0" y="0" version="1.1" viewBox="0 0 100 100" xml:space="preserve"><path fill="#03adad" d="M2 2h96v96H2z"/><path fill="#04847d" d="M54.501 25.273a.996.996 0 0 0-1.09-.19.97.97 0 0 0-.6.91v.83l-1.82-1.82h-16.91c-1.43 0-2.6 1.16-2.6 2.6v44.79c0 .78.36 1.47.89 1.96L56.018 98H98V68.172l-29.799-29.8-13.7-13.1z"/><path fill="#fff" d="M67.513 42.095h-12.1a4.605 4.605 0 0 1-4.6-4.6v-11.5c0-.347.064-.681.174-.995H34.086a2.605 2.605 0 0 0-2.603 2.603v44.794A2.606 2.606 0 0 0 34.086 75h31.828a2.606 2.606 0 0 0 2.603-2.603V41.918a3.014 3.014 0 0 1-1.004.177zm-30.53-10.16c0-.55.45-1 1-1h9.78c.55 0 1 .45 1 1v7.59c0 .56-.45 1-1 1h-9.78c-.55 0-1-.44-1-1v-7.59zm24.976 36.527H38.04a1 1 0 0 1 0-2H61.96a1 1 0 0 1 0 2zm0-7.34H38.04a1 1 0 0 1 0-2H61.96a1 1 0 0 1 0 2zm0-7.339H38.04a1 1 0 0 1 0-2H61.96a1 1 0 0 1 0 2zm0-7.34H50a1 1 0 0 1 0-2H61.96a1 1 0 0 1 0 2z"/><path fill="#fff" d="M55.413 40.095h12.1a1 1 0 0 0 .93-.63c.15-.38.06-.81-.24-1.09l-13.7-13.1a.997.997 0 0 0-1.09-.19.97.97 0 0 0-.6.91v11.5c0 1.43 1.16 2.6 2.6 2.6z"/></svg>