<svg xmlns="http://www.w3.org/2000/svg" viewBox="0 0 64 64"><path d="M55.54 8.47A4.93 4.93 0 0 0 52.13 7H52a4.36 4.36 0 0 0-.51 0 2.63 2.63 0 0 0-.39.06l-.34.08A5 5 0 0 0 47 12v1H57V12A5 5 0 0 0 55.54 8.47zM47 46a5 5 0 0 0 2.64 4.41 4.39 4.39 0 0 0 .44.21l.38.14.22.06a4.26 4.26 0 0 0 .79.16L52 51h0a4.76 4.76 0 0 0 3.36-1.42A5.38 5.38 0 0 0 57 45.75V45H47zM26 39a5 5 0 0 0-3.44 8.63h0a1.22 1.22 0 0 0 .17.15 5 5 0 0 0 6.52 0 1.22 1.22 0 0 0 .17-.15h0A5 5 0 0 0 26 39zM23 50.32v6.06l2.55-1.27a1 1 0 0 1 .9 0L29 56.38V50.32a7 7 0 0 1-6 0z"/><path d="M45,46V12a7,7,0,0,1,2.11-5H12a5,5,0,0,0-5,5V46a5,5,0,0,0,5,5h9V48.89a7,7,0,1,1,10,0V51H47.11l-.06-.06A6.89,6.89,0,0,1,45,46ZM36,33H16a1,1,0,0,1,0-2H36a1,1,0,0,1,0,2Zm0-6H16a1,1,0,0,1,0-2H36a1,1,0,0,1,0,2Zm3-7a1,1,0,0,1-1,1H14a1,1,0,0,1-1-1V13a1,1,0,0,1,1-1H38a1,1,0,0,1,1,1Z"/><rect width="22" height="5" x="15" y="14"/></svg>