<svg id="SvgjsSvg1017" width="288" height="288" xmlns="http://www.w3.org/2000/svg" version="1.1" xmlns:xlink="http://www.w3.org/1999/xlink" xmlns:svgjs="http://svgjs.com/svgjs"><defs id="SvgjsDefs1018"></defs><g id="SvgjsG1019"><svg xmlns="http://www.w3.org/2000/svg" xmlns:svgjs="http://svgjs.com/svgjs" xmlns:xlink="http://www.w3.org/1999/xlink" width="288" height="288"><svg xmlns="http://www.w3.org/2000/svg" width="288" height="288" viewBox="0 0 48 48"><polygon fill="#424242" points="24 36 21 39 15.81 34.86 21 34 24 36" class="color42a5f5 svgShape color424242"></polygon><polygon fill="#424242" points="32.19 34.86 27 39 24 36 27 34 32.19 34.86" class="color42a5f5 svgShape color424242"></polygon><path fill="#424242" d="M35.82,34.46,28,33.15V30.74A7,7,0,0,0,30.92,26h.58a3.5,3.5,0,0,0,0-7H30a1,1,0,0,0-1,1v5a5,5,0,0,1-1.95,3.93,1,1,0,0,0-1,.6,4.81,4.81,0,0,1-4.16,0,1,1,0,0,0-1-.6A5,5,0,0,1,19,25V20a1,1,0,0,0-1-1H16.5a3.5,3.5,0,0,0,0,7h.58A7,7,0,0,0,20,30.74v2.41l-7.82,1.31A5,5,0,0,0,8,39.39V47a1,1,0,0,0,1,1H39a1,1,0,0,0,1-1V39.39A5,5,0,0,0,35.82,34.46ZM31,21h.5a1.5,1.5,0,0,1,0,3H31ZM17,24h-.5a1.5,1.5,0,0,1,0-3H17Zm5,7.71a7.07,7.07,0,0,0,4,0v1.75L24,34.8l-2-1.34ZM38,46H34V42a1,1,0,0,0-2,0v4H16V42a1,1,0,0,0-2,0v4H10V39.39a3,3,0,0,1,2.51-3l8.26-1.38c2.82,1.87,2.85,2,3.24,2s.53-.16,3.22-2l8.26,1.38a3,3,0,0,1,2.51,3Z" class="color424242 svgShape"></path><path fill="#424242" d="M47,0H1A1,1,0,0,0,0,1V29a1,1,0,0,0,1,1H16.54a9.19,9.19,0,0,1-1-2H2V2H46V28H32.48a9.19,9.19,0,0,1-1,2H47a1,1,0,0,0,1-1V1A1,1,0,0,0,47,0Z" class="color42a5f5 svgShape color424242"></path><path fill="#424242" d="M9.05 10.68l2-6a1 1 0 0 1 1.9.64l-2 6A1 1 0 0 1 9.05 10.68zM15 11a1 1 0 0 1-.71-1.71L15.59 8l-1.3-1.29a1 1 0 0 1 1.42-1.42l2 2a1 1 0 0 1 0 1.42C15.53 10.89 15.54 11 15 11zM7 11c-.54 0-.57-.15-2.71-2.29a1 1 0 0 1 0-1.42l2-2A1 1 0 0 1 7.71 6.71L6.41 8l1.3 1.29A1 1 0 0 1 7 11zM38 8.59l-3.18 3.17A5 5 0 0 1 38 4.1zM39.41 10H43.9a5 5 0 0 1-7.66 3.18zM43.9 8H40V4.1A5 5 0 0 1 43.9 8z" class="color42a5f5 svgShape color424242"></path><path fill="#424242" d="M12 18H5a1 1 0 0 1 0-2h7A1 1 0 0 1 12 18zM9 22H5a1 1 0 0 1 0-2H9A1 1 0 0 1 9 22zM9 26H5a1 1 0 0 1 0-2H9A1 1 0 0 1 9 26zM43 18H36a1 1 0 0 1 0-2h7A1 1 0 0 1 43 18zM43 22H39a1 1 0 0 1 0-2h4A1 1 0 0 1 43 22zM43 26H39a1 1 0 0 1 0-2h4A1 1 0 0 1 43 26z" class="color424242 svgShape"></path><path fill="#424242" d="M26,18h0c-3.48,1.74-6.22,2-10,2V17a6,6,0,0,1,6-6h3.76A3.62,3.62,0,0,1,29,13a3,3,0,0,1,3,3v4C30,20,28,20,26,18Z" class="color42a5f5 svgShape color424242"></path></svg></svg></g></svg>